#N canvas 249 38 767 638 10;
#X obj 339 109 dac~;
#X obj 244 170 r loadfile;
#X obj 245 237 soundfiler;
#X floatatom 244 262 5 0 0 0 - - -;
#X obj 322 236 print;
#X obj 244 192 bng 15 250 50 0 empty empty empty 17 7 0 10 -262144
-1 -1;
#X obj 200 83 tgl 15 0 empty empty empty 17 7 0 10 -262144 -1 -1 1
1;
#N canvas 830 117 456 400 player 0;
#X obj 56 78 inlet;
#X obj 55 187 line~;
#X obj 55 210 tabread~ mbira;
#X obj 55 260 outlet~;
#X obj 56 109 t f b;
#X msg 83 136 0;
#X msg 56 162 88198 \$1;
#X obj 155 163 inlet;
#X obj 154 210 line~;
#X obj 55 232 *~;
#X msg 155 185 \$1 10;
#X connect 0 0 4 0;
#X connect 1 0 2 0;
#X connect 2 0 9 0;
#X connect 4 0 6 0;
#X connect 4 1 5 0;
#X connect 5 0 1 0;
#X connect 6 0 1 0;
#X connect 7 0 10 0;
#X connect 8 0 9 1;
#X connect 9 0 3 0;
#X connect 10 0 8 0;
#X restore 186 23 pd player;
#N canvas 0 22 450 300 (subpatch) 0;
#X array mbira 575582 float 2;
#X coords 0 1 575582 -1 200 140 1;
#X restore 298 275 graph;
#X obj 186 -27 r play1;
#X obj 236 -6 r vol1;
#N canvas 830 117 456 400 player 0;
#X obj 56 78 inlet;
#X obj 55 187 line~;
#X obj 55 210 tabread~ mbira;
#X obj 55 260 outlet~;
#X obj 56 109 t f b;
#X msg 83 136 0;
#X msg 56 162 88198 \$1;
#X obj 160 162 inlet;
#X obj 159 209 line~;
#X obj 55 232 *~;
#X msg 160 184 \$1 10;
#X connect 0 0 4 0;
#X connect 1 0 2 0;
#X connect 2 0 9 0;
#X connect 4 0 6 0;
#X connect 4 1 5 0;
#X connect 5 0 1 0;
#X connect 6 0 1 0;
#X connect 7 0 10 0;
#X connect 8 0 9 1;
#X connect 9 0 3 0;
#X connect 10 0 8 0;
#X restore 289 23 pd player;
#N canvas 830 117 456 400 player 0;
#X obj 56 78 inlet;
#X obj 55 187 line~;
#X obj 55 210 tabread~ mbira;
#X obj 55 260 outlet~;
#X obj 56 109 t f b;
#X msg 83 136 0;
#X msg 56 162 88198 \$1;
#X obj 156 165 inlet;
#X obj 155 212 line~;
#X obj 55 232 *~;
#X msg 156 187 \$1 10;
#X connect 0 0 4 0;
#X connect 1 0 2 0;
#X connect 2 0 9 0;
#X connect 4 0 6 0;
#X connect 4 1 5 0;
#X connect 5 0 1 0;
#X connect 6 0 1 0;
#X connect 7 0 10 0;
#X connect 8 0 9 1;
#X connect 9 0 3 0;
#X connect 10 0 8 0;
#X restore 393 24 pd player;
#N canvas 830 117 456 400 player 0;
#X obj 56 78 inlet;
#X obj 55 187 line~;
#X obj 55 210 tabread~ mbira;
#X obj 55 260 outlet~;
#X obj 56 109 t f b;
#X msg 83 136 0;
#X msg 56 162 88198 \$1;
#X obj 159 162 inlet;
#X obj 158 209 line~;
#X obj 55 232 *~;
#X msg 159 184 \$1 10;
#X connect 0 0 4 0;
#X connect 1 0 2 0;
#X connect 2 0 9 0;
#X connect 4 0 6 0;
#X connect 4 1 5 0;
#X connect 5 0 1 0;
#X connect 6 0 1 0;
#X connect 7 0 10 0;
#X connect 8 0 9 1;
#X connect 9 0 3 0;
#X connect 10 0 8 0;
#X restore 490 22 pd player;
#X obj 289 -27 r play2;
#X obj 339 -6 r vol2;
#X obj 393 -26 r play3;
#X obj 443 -5 r vol3;
#X obj 490 -28 r play4;
#X obj 540 -7 r vol4;
#X msg 245 213 read -resize samples/mbira1.wav mbira;
#X connect 1 0 5 0;
#X connect 2 0 3 0;
#X connect 5 0 20 0;
#X connect 6 0 0 0;
#X connect 7 0 0 0;
#X connect 9 0 7 0;
#X connect 10 0 7 1;
#X connect 11 0 0 0;
#X connect 11 0 0 1;
#X connect 12 0 0 0;
#X connect 12 0 0 1;
#X connect 13 0 0 1;
#X connect 14 0 11 0;
#X connect 15 0 11 1;
#X connect 16 0 12 0;
#X connect 17 0 12 1;
#X connect 18 0 13 0;
#X connect 19 0 13 1;
#X connect 20 0 2 0;
#X connect 20 0 4 0;
