#N canvas 470 49 767 638 10;
#X obj 335 412 dac~;
#X obj 353 178 r tempo;
#X obj 260 178 r octave;
#X obj 339 232 *~;
#X obj 123 87 osc~ 200;
#X obj 155 109 osc~ 250;
#X obj 182 132 osc~ 300;
#X obj 296 382 tgl 15 0 empty empty empty 17 7 0 10 -262144 -1 -1 1
1;
#X obj 183 80 osc~ 400;
#X obj 215 102 osc~ 500;
#X obj 242 125 osc~ 600;
#X obj 49 98 osc~ 125;
#X obj 81 121 osc~ 150;
#X obj 242 154 osc~ 750;
#X obj 224 200 bp~ 400 6;
#X obj 352 206 phasor~ -1;
#X obj 356 383 *~;
#X obj 400 372 line~;
#X msg 399 349 \$1 30;
#X obj 336 350 *~;
#X obj 352 326 line~;
#X msg 351 303 \$1 30;
#X obj 402 266 r panL;
#X obj 417 305 r panR;
#X connect 1 0 15 0;
#X connect 2 0 14 1;
#X connect 3 0 19 0;
#X connect 3 0 16 0;
#X connect 4 0 14 0;
#X connect 5 0 14 0;
#X connect 6 0 14 0;
#X connect 7 0 0 0;
#X connect 8 0 14 0;
#X connect 9 0 14 0;
#X connect 10 0 14 0;
#X connect 11 0 14 0;
#X connect 12 0 14 0;
#X connect 13 0 14 0;
#X connect 14 0 3 0;
#X connect 15 0 3 1;
#X connect 16 0 0 1;
#X connect 17 0 16 1;
#X connect 18 0 17 0;
#X connect 19 0 0 0;
#X connect 20 0 19 1;
#X connect 21 0 20 0;
#X connect 22 0 21 0;
#X connect 23 0 18 0;
